<?xml version="1.0" encoding="UTF-8"?>
<!DOCTYPE svg PUBLIC "-//W3C//DTD SVG 1.1//EN" "http://www.w3.org/Graphics/SVG/1.1/DTD/svg11.dtd">
<!-- Creator: CorelDRAW X7 -->
<svg xmlns="http://www.w3.org/2000/svg" xml:space="preserve" width="1.3546mm" height="1.1006mm" version="1.1" style="shape-rendering:geometricPrecision; text-rendering:geometricPrecision; image-rendering:optimizeQuality; fill-rule:evenodd; clip-rule:evenodd"
viewBox="0 0 135 110"
 xmlns:xlink="http://www.w3.org/1999/xlink">
 <defs>
  <style type="text/css">
   <![CDATA[
    .fil1 {fill:#332C2B}
    .fil0 {fill:#F8F9F9;fill-rule:nonzero}
   ]]>
  </style>
 </defs>
 <g id="Layer_x0020_1">
  <metadata id="CorelCorpID_0Corel-Layer"/>
  <polygon class="fil0" points="124,20 135,1 122,1 13,1 0,1 12,20 12,20 12,20 35,56 40,64 40,65 68,109 96,64 123,20 123,20 "/>
  <path class="fil1" d="M68 88l-15 -24 0 0 12 0 3 5 0 0 2 -5 13 0 0 0 -15 24zm30 -68l-34 0 -27 0 3 5 -12 0 -8 -13 96 0 -8 13 -13 0 3 -5zm-57 6l3 5 19 0 28 0 3 -5 13 0 -1 1 0 0 -11 17 -12 0 3 -5 -11 0 -26 0 4 5 -13 0 -11 -18 12 0zm13 20l2 4 19 0 4 0 3 -4 12 0 -10 16 -12 0 2 -4 -13 0 3 4 -13 0 -5 -8 -5 -8 13 0zm81 -45l-135 0 68 108 67 -108z"/>
 </g>
</svg>
