<?xml version="1.0" encoding="UTF-8"?>
<!DOCTYPE svg PUBLIC "-//W3C//DTD SVG 1.1//EN" "http://www.w3.org/Graphics/SVG/1.1/DTD/svg11.dtd">
<!-- Creator: CorelDRAW X7 -->
<svg xmlns="http://www.w3.org/2000/svg" xml:space="preserve" width="21.6746mm" height="7.2812mm" version="1.1" style="shape-rendering:geometricPrecision; text-rendering:geometricPrecision; image-rendering:optimizeQuality; fill-rule:evenodd; clip-rule:evenodd"
viewBox="0 0 2167 728"
 xmlns:xlink="http://www.w3.org/1999/xlink">
 <defs>
  <style type="text/css">
   <![CDATA[
    .fil1 {fill:#332C2B}
    .fil2 {fill:#332C2B;fill-rule:nonzero}
    .fil0 {fill:#F8F9F9;fill-rule:nonzero}
   ]]>
  </style>
 </defs>
 <g id="Layer_x0020_1">
  <metadata id="CorelCorpID_0Corel-Layer"/>
  <g id="_227718280">
   <polygon class="fil0" points="829,128 908,2 822,2 87,2 0,2 79,128 80,129 80,129 232,371 267,427 268,428 454,724 641,427 829,129 829,129 "/>
   <path class="fil1" d="M455 586l-100 -159 -1 -2 82 0 19 30 0 0 19 -30 83 0 -1 2 -101 159zm204 -457l-232 0 -175 0 18 30 -83 0 -54 -85 645 0 -54 85 -84 0 19 -30zm-381 42l19 31 125 -1 192 0 18 -30 84 0 -2 3 0 0 -74 118 -83 0 22 -36 -72 0 -175 0 22 36 -83 0 -77 -121 84 0zm84 134l15 24 125 0 32 -1 15 -23 83 0 -67 108 -83 0 18 -30 -90 0 19 30 -83 0 -34 -54 -34 -54 84 0zm549 -303l-911 0 455 724 456 -724z"/>
   <polygon class="fil2" points="1183,526 1177,526 1030,202 1109,202 1183,373 1257,202 1330,202 "/>
   <path class="fil2" d="M1366 248c0,-10 3,-19 11,-26 7,-7 15,-11 26,-11 10,0 19,3 26,11 7,7 11,15 11,26 0,10 -4,19 -11,26 -7,8 -16,11 -26,11 -10,0 -19,-3 -26,-11 -8,-7 -11,-16 -11,-26zm71 266l-68 0 0 -194 68 -9 0 203z"/>
   <path class="fil2" d="M1613 369c-4,-2 -8,-4 -12,-4 -4,-2 -7,-2 -11,-2 -13,0 -23,5 -32,16 -9,11 -13,24 -13,40 0,16 4,28 11,38 8,11 17,16 28,16 5,0 9,-2 14,-4 5,-2 10,-6 15,-11l0 -89zm67 -49l0 121c0,16 0,28 1,39 1,10 1,19 2,26l-62 17 -6 -18c-8,6 -17,11 -25,14 -8,3 -17,4 -25,4 -25,0 -46,-10 -63,-30 -17,-20 -26,-44 -26,-74 0,-31 10,-57 29,-77 19,-21 43,-31 72,-31 7,0 14,1 21,3 8,2 16,4 24,8l58 -2z"/>
   <path class="fil2" d="M1787 514l-68 0 0 -194 62 0 0 33c11,-13 22,-22 33,-29 12,-6 25,-9 38,-9 21,0 36,6 47,18 10,11 16,28 16,51l0 130 -67 0 0 -111c0,-10 -2,-18 -6,-23 -5,-5 -11,-8 -19,-8 -12,0 -21,4 -27,12 -6,8 -9,19 -9,34l0 96z"/>
   <path class="fil2" d="M2023 417c0,17 3,30 10,40 7,10 16,15 27,15 11,0 21,-5 28,-15 7,-10 10,-23 10,-40 0,-16 -3,-29 -10,-40 -7,-10 -17,-15 -28,-15 -11,0 -20,5 -27,15 -7,11 -10,24 -10,40zm-69 0c0,-31 10,-56 30,-76 20,-20 46,-30 76,-30 31,0 57,10 77,30 20,20 30,45 30,76 0,31 -10,56 -30,76 -20,20 -46,30 -77,30 -30,0 -56,-10 -76,-30 -20,-20 -30,-45 -30,-76z"/>
  </g>
 </g>
</svg>
