<?xml version="1.0" encoding="UTF-8"?>
<!DOCTYPE svg PUBLIC "-//W3C//DTD SVG 1.1//EN" "http://www.w3.org/Graphics/SVG/1.1/DTD/svg11.dtd">
<!-- Creator: CorelDRAW X7 -->
<svg xmlns="http://www.w3.org/2000/svg" xml:space="preserve" width="21.6746mm" height="17.1872mm" version="1.1" style="shape-rendering:geometricPrecision; text-rendering:geometricPrecision; image-rendering:optimizeQuality; fill-rule:evenodd; clip-rule:evenodd"
viewBox="0 0 2167 1719"
 xmlns:xlink="http://www.w3.org/1999/xlink">
 <defs>
  <style type="text/css">
   <![CDATA[
    .fil1 {fill:#332C2B}
    .fil0 {fill:#F8F9F9;fill-rule:nonzero}
   ]]>
  </style>
 </defs>
 <g id="Layer_x0020_1">
  <metadata id="CorelCorpID_0Corel-Layer"/>
  <polygon class="fil0" points="1975,300 2164,0 1958,0 210,0 4,0 192,300 194,303 194,303 556,879 639,1010 640,1013 1084,1718 1529,1010 1974,303 1974,303 "/>
  <path class="fil1" d="M1084 1388l-238 -379 -4 -5 197 0 44 72 0 0 45 -72 197 0 -3 5 -238 379zm484 -1089l-551 1 -417 1 44 71 -199 0 -128 -203 1533 0 -127 203 -201 0 46 -73zm-906 102l45 72 297 -1 456 -1 44 -70 200 0 -4 8 0 0 -177 280 -199 0 54 -87 -172 1 -417 1 54 85 -199 0 -181 -288 199 0zm199 317l36 57 297 0 77 0 35 -57 199 0 -162 257 -197 0 45 -72 -215 1 44 71 -196 0 -81 -128 -80 -129 198 0zm1306 -720l-2166 0 1083 1723 1083 -1723z"/>
 </g>
</svg>
