<?xml version="1.0" encoding="UTF-8"?>
<!DOCTYPE svg PUBLIC "-//W3C//DTD SVG 1.1//EN" "http://www.w3.org/Graphics/SVG/1.1/DTD/svg11.dtd">
<!-- Creator: CorelDRAW X7 -->
<svg xmlns="http://www.w3.org/2000/svg" xml:space="preserve" width="43.3492mm" height="14.4778mm" version="1.1" style="shape-rendering:geometricPrecision; text-rendering:geometricPrecision; image-rendering:optimizeQuality; fill-rule:evenodd; clip-rule:evenodd"
viewBox="0 0 4335 1448"
 xmlns:xlink="http://www.w3.org/1999/xlink">
 <defs>
  <style type="text/css">
   <![CDATA[
    .fil1 {fill:gray}
    .fil0 {fill:#F8F9F9;fill-rule:nonzero}
    .fil2 {fill:gray;fill-rule:nonzero}
   ]]>
  </style>
 </defs>
 <g id="Layer_x0020_1">
  <metadata id="CorelCorpID_0Corel-Layer"/>
  <g id="_227126528">
   <polygon class="fil0" points="1658,252 1817,0 1643,0 173,0 0,0 158,252 160,254 160,254 465,739 534,849 535,851 908,1444 1283,849 1657,254 1657,254 "/>
   <path class="fil1" d="M911 1169l-200 -319 -3 -4 165 0 37 60 0 0 38 -60 166 0 -3 4 -200 319zm407 -916l-463 1 -351 0 37 60 -168 0 -107 -171 1290 0 -108 171 -168 0 38 -61zm-762 85l38 61 250 -1 383 0 37 -60 169 0 -4 7 0 0 -149 236 -167 0 46 -73 -145 0 -351 1 45 72 -167 0 -152 -243 167 0zm168 267l29 48 251 0 64 0 30 -48 167 0 -136 216 -166 0 38 -60 -181 0 38 60 -166 0 -67 -108 -68 -108 167 0zm1098 -605l-1822 0 911 1448 911 -1448z"/>
   <path class="fil2" d="M2365 1048l-10 0 -295 -648 158 0 147 341 149 -341 146 0 -295 648zm367 -556c0,-21 7,-38 21,-53 14,-14 32,-21 53,-21 21,0 38,7 52,21 15,14 22,32 22,53 0,20 -8,38 -22,53 -14,14 -32,22 -52,22 -20,0 -38,-8 -52,-23 -15,-14 -22,-32 -22,-52zm142 532l-136 0 0 -388 136 -18 0 406zm351 -289c-8,-5 -15,-8 -23,-10 -7,-2 -14,-3 -22,-3 -25,0 -47,10 -64,32 -18,21 -26,48 -26,81 0,30 7,55 23,76 15,20 34,30 56,30 9,0 18,-2 27,-7 10,-5 19,-12 29,-22l0 -177zm135 -99l0 243c0,30 1,56 2,76 1,21 3,38 5,53l-125 34 -12 -36c-17,12 -34,21 -50,27 -16,7 -33,9 -51,9 -50,0 -92,-20 -126,-59 -34,-40 -51,-90 -51,-149 0,-63 19,-115 57,-155 39,-41 87,-61 145,-61 14,0 28,2 42,5 15,4 31,10 49,17l115 -4zm213 388l-135 0 0 -388 125 0 0 65c20,-25 42,-44 66,-57 23,-12 48,-18 75,-18 41,0 72,11 94,35 21,23 31,58 31,103l0 260 -133 0 0 -222c0,-21 -5,-36 -13,-46 -8,-11 -21,-16 -37,-16 -23,0 -41,8 -54,24 -13,16 -19,39 -19,69l0 191zm472 -194c0,33 7,60 21,80 15,20 33,30 55,30 22,0 40,-10 54,-30 15,-21 22,-47 22,-80 0,-32 -7,-59 -22,-79 -14,-21 -32,-31 -54,-31 -22,0 -40,10 -55,30 -14,21 -21,47 -21,80zm-137 0c0,-62 20,-113 60,-153 40,-39 91,-59 153,-59 62,0 113,20 153,59 41,40 61,91 61,153 0,61 -20,112 -61,152 -40,40 -91,60 -153,60 -62,0 -112,-20 -153,-60 -40,-40 -60,-91 -60,-152z"/>
  </g>
 </g>
</svg>
